<svg width="116" height="20" viewBox="0 0 116 20" fill="none" xmlns="http://www.w3.org/2000/svg">
<g clip-path="url(#clip0_70_1243)">
<g clip-path="url(#clip1_70_1243)">
<path d="M9.538 1.61001C9.709 1.19901 10.291 1.19901 10.462 1.61001L12.528 6.57701C12.6 6.75101 12.763 6.86901 12.95 6.88401L18.312 7.31401C18.756 7.34901 18.935 7.90301 18.598 8.19201L14.512 11.692C14.369 11.814 14.307 12.005 14.351 12.188L15.599 17.421C15.702 17.853 15.232 18.195 14.852 17.963L10.261 15.159C10.101 15.062 9.899 15.062 9.739 15.159L5.148 17.963C4.769 18.195 4.298 17.853 4.401 17.421L5.649 12.188C5.693 12.005 5.631 11.814 5.488 11.692L1.402 8.19201C1.065 7.90301 1.244 7.34901 1.688 7.31401L7.051 6.88401C7.237 6.86901 7.4 6.75101 7.472 6.57701L9.538 1.61001Z" fill="#F2F4F7"/>
<path d="M9.538 1.61001C9.709 1.19901 10.291 1.19901 10.462 1.61001L12.528 6.57701C12.6 6.75101 12.763 6.86901 12.95 6.88401L18.312 7.31401C18.756 7.34901 18.935 7.90301 18.598 8.19201L14.512 11.692C14.369 11.814 14.307 12.005 14.351 12.188L15.599 17.421C15.702 17.853 15.232 18.195 14.852 17.963L10.261 15.159C10.101 15.062 9.899 15.062 9.739 15.159L5.148 17.963C4.769 18.195 4.298 17.853 4.401 17.421L5.649 12.188C5.693 12.005 5.631 11.814 5.488 11.692L1.402 8.19201C1.065 7.90301 1.244 7.34901 1.688 7.31401L7.051 6.88401C7.237 6.86901 7.4 6.75101 7.472 6.57701L9.538 1.61001Z" fill="#FEC84B"/>
<path d="M33.538 1.61001C33.709 1.19901 34.291 1.19901 34.462 1.61001L36.528 6.57701C36.6 6.75101 36.763 6.86901 36.95 6.88401L42.312 7.31401C42.756 7.34901 42.935 7.90301 42.598 8.19201L38.512 11.692C38.369 11.814 38.307 12.005 38.351 12.188L39.599 17.421C39.702 17.853 39.231 18.195 38.852 17.964L34.261 15.159C34.101 15.062 33.899 15.062 33.739 15.159L29.148 17.964C28.768 18.195 28.298 17.853 28.401 17.421L29.649 12.188C29.693 12.005 29.631 11.814 29.488 11.692L25.402 8.19201C25.065 7.90301 25.244 7.34901 25.688 7.31401L31.05 6.88401C31.237 6.86901 31.4 6.75101 31.472 6.57701L33.538 1.61001Z" fill="#F2F4F7"/>
<path d="M33.538 1.61001C33.709 1.19901 34.291 1.19901 34.462 1.61001L36.528 6.57701C36.6 6.75101 36.763 6.86901 36.95 6.88401L42.312 7.31401C42.756 7.34901 42.935 7.90301 42.598 8.19201L38.512 11.692C38.369 11.814 38.307 12.005 38.351 12.188L39.599 17.421C39.702 17.853 39.231 18.195 38.852 17.964L34.261 15.159C34.101 15.062 33.899 15.062 33.739 15.159L29.148 17.964C28.768 18.195 28.298 17.853 28.401 17.421L29.649 12.188C29.693 12.005 29.631 11.814 29.488 11.692L25.402 8.19201C25.065 7.90301 25.244 7.34901 25.688 7.31401L31.05 6.88401C31.237 6.86901 31.4 6.75101 31.472 6.57701L33.538 1.61001Z" fill="#FEC84B"/>
<path d="M57.538 1.61001C57.709 1.19901 58.291 1.19901 58.462 1.61001L60.528 6.57701C60.6 6.75101 60.763 6.86901 60.95 6.88401L66.312 7.31401C66.756 7.34901 66.935 7.90301 66.598 8.19201L62.512 11.692C62.369 11.814 62.307 12.005 62.351 12.188L63.599 17.421C63.702 17.853 63.231 18.195 62.852 17.964L58.261 15.159C58.101 15.062 57.899 15.062 57.739 15.159L53.148 17.964C52.769 18.195 52.298 17.853 52.401 17.421L53.649 12.188C53.693 12.005 53.631 11.814 53.488 11.692L49.402 8.19201C49.065 7.90301 49.244 7.34901 49.688 7.31401L55.05 6.88401C55.237 6.86901 55.4 6.75101 55.472 6.57701L57.538 1.61001Z" fill="#F2F4F7"/>
<path d="M57.538 1.61001C57.709 1.19901 58.291 1.19901 58.462 1.61001L60.528 6.57701C60.6 6.75101 60.763 6.86901 60.95 6.88401L66.312 7.31401C66.756 7.34901 66.935 7.90301 66.598 8.19201L62.512 11.692C62.369 11.814 62.307 12.005 62.351 12.188L63.599 17.421C63.702 17.853 63.231 18.195 62.852 17.964L58.261 15.159C58.101 15.062 57.899 15.062 57.739 15.159L53.148 17.964C52.769 18.195 52.298 17.853 52.401 17.421L53.649 12.188C53.693 12.005 53.631 11.814 53.488 11.692L49.402 8.19201C49.065 7.90301 49.244 7.34901 49.688 7.31401L55.05 6.88401C55.237 6.86901 55.4 6.75101 55.472 6.57701L57.538 1.61001Z" fill="#FEC84B"/>
<path d="M81.538 1.61001C81.709 1.19901 82.291 1.19901 82.462 1.61001L84.528 6.57701C84.6 6.75101 84.763 6.86901 84.95 6.88401L90.312 7.31401C90.756 7.34901 90.935 7.90301 90.598 8.19201L86.512 11.692C86.369 11.814 86.307 12.005 86.351 12.188L87.599 17.421C87.702 17.853 87.231 18.195 86.852 17.964L82.261 15.159C82.101 15.062 81.899 15.062 81.739 15.159L77.148 17.964C76.769 18.195 76.298 17.853 76.401 17.421L77.649 12.188C77.693 12.005 77.631 11.814 77.488 11.692L73.402 8.19201C73.065 7.90301 73.244 7.34901 73.688 7.31401L79.05 6.88401C79.237 6.86901 79.4 6.75101 79.472 6.57701L81.538 1.61001Z" fill="#F2F4F7"/>
<path d="M81.538 1.61001C81.709 1.19901 82.291 1.19901 82.462 1.61001L84.528 6.57701C84.6 6.75101 84.763 6.86901 84.95 6.88401L90.312 7.31401C90.756 7.34901 90.935 7.90301 90.598 8.19201L86.512 11.692C86.369 11.814 86.307 12.005 86.351 12.188L87.599 17.421C87.702 17.853 87.231 18.195 86.852 17.964L82.261 15.159C82.101 15.062 81.899 15.062 81.739 15.159L77.148 17.964C76.769 18.195 76.298 17.853 76.401 17.421L77.649 12.188C77.693 12.005 77.631 11.814 77.488 11.692L73.402 8.19201C73.065 7.90301 73.244 7.34901 73.688 7.31401L79.05 6.88401C79.237 6.86901 79.4 6.75101 79.472 6.57701L81.538 1.61001Z" fill="#FEC84B"/>
<path d="M105.538 1.61001C105.709 1.19901 106.291 1.19901 106.462 1.61001L108.528 6.57701C108.6 6.75101 108.763 6.86901 108.949 6.88401L114.312 7.31401C114.756 7.34901 114.935 7.90301 114.598 8.19201L110.512 11.692C110.369 11.814 110.307 12.005 110.351 12.188L111.599 17.421C111.702 17.853 111.231 18.195 110.852 17.964L106.261 15.159C106.101 15.062 105.899 15.062 105.739 15.159L101.148 17.964C100.769 18.195 100.298 17.853 100.401 17.421L101.649 12.188C101.693 12.005 101.631 11.814 101.488 11.692L97.402 8.19201C97.065 7.90301 97.244 7.34901 97.688 7.31401L103.051 6.88401C103.237 6.86901 103.4 6.75101 103.472 6.57701L105.538 1.61001Z" fill="#F2F4F7"/>
<path d="M105.538 1.61001C105.709 1.19901 106.291 1.19901 106.462 1.61001L108.528 6.57701C108.6 6.75101 108.763 6.86901 108.949 6.88401L114.312 7.31401C114.756 7.34901 114.935 7.90301 114.598 8.19201L110.512 11.692C110.369 11.814 110.307 12.005 110.351 12.188L111.599 17.421C111.702 17.853 111.231 18.195 110.852 17.964L106.261 15.159C106.101 15.062 105.899 15.062 105.739 15.159L101.148 17.964C100.769 18.195 100.298 17.853 100.401 17.421L101.649 12.188C101.693 12.005 101.631 11.814 101.488 11.692L97.402 8.19201C97.065 7.90301 97.244 7.34901 97.688 7.31401L103.051 6.88401C103.237 6.86901 103.4 6.75101 103.472 6.57701L105.538 1.61001Z" fill="#FEC84B"/>
</g>
</g>
<defs>
<clipPath id="clip0_70_1243">
<rect width="116" height="20" fill="white"/>
</clipPath>
<clipPath id="clip1_70_1243">
<rect width="116" height="20" fill="white"/>
</clipPath>
</defs>
</svg>
